<svg xmlns="http://www.w3.org/2000/svg" viewBox="0 0 48 48" width="96px" height="96px">
    <path fill="#fff" d="M16.987,17.583l-1.625-1.166C13.839,18.538,13,21.195,13,23.899c0,2.807,0.896,5.542,2.524,7.702 l1.598-1.203C15.754,28.582,15,26.274,15,23.899C15,21.61,15.706,19.367,16.987,17.583z"/>
    <polygon fill="#fff" points="3.806,18 0,18 0,20 2.513,20 7.474,31 13,31 13,29 8.767,29"/>
    <polygon fill="#fff" points="44.194,18 39.233,29 35,29 35,31 40.526,31 45.487,20 48,20 48,18"/>
    <path fill="#fff" d="M20.711,27.021l0.641,1.895c3.95-1.338,6.874-4.708,7.632-8.796l-1.967-0.365 C26.392,23.132,23.975,25.916,20.711,27.021z"/>
    <rect width="1.999" height="3.162" x="19.5" y="18.919" fill="#fff" transform="rotate(-18.45 20.502 20.5)"/>
    <rect width="1.999" height="3.162" x="22.5" y="17.919" fill="#fff" transform="rotate(-18.432 23.503 19.5)"/>
    <path fill="#fff" d="M31.007,17.583c1.282,1.785,1.988,4.028,1.988,6.316c0,2.373-0.754,4.682-2.122,6.499l1.598,1.203 c1.628-2.162,2.524-4.897,2.524-7.702c0-2.703-0.84-5.36-2.363-7.482L31.007,17.583z"/>
</svg>
